<svg width="256" height="256" viewBox="0 0 256 256" fill="none" xmlns="http://www.w3.org/2000/svg">
<path opacity="0.5" d="M128 21.3333C106.904 21.3333 86.2806 27.5892 68.7394 39.3099C51.1981 51.0306 37.5264 67.6896 29.4531 87.1804C21.3797 106.671 19.2674 128.118 23.3831 148.81C27.4989 169.501 37.6579 188.507 52.5755 203.425C67.4931 218.342 86.4993 228.501 107.191 232.617C127.882 236.733 149.329 234.62 168.82 226.547C188.311 218.474 204.97 204.802 216.69 187.261C228.411 169.72 234.667 149.097 234.667 128C234.667 113.992 231.908 100.122 226.547 87.1804C221.187 74.239 213.33 62.4802 203.425 52.5753C193.52 42.6703 181.761 34.8133 168.82 29.4528C155.878 24.0923 142.008 21.3333 128 21.3333V21.3333ZM128 213.333C111.123 213.333 94.6245 208.329 80.5915 198.952C66.5586 189.575 55.6212 176.248 49.1625 160.656C42.7038 145.063 41.0139 127.905 44.3065 111.352C47.5991 94.7992 55.7264 79.5943 67.6604 67.6602C79.5945 55.7261 94.7995 47.5989 111.353 44.3063C127.906 41.0137 145.063 42.7036 160.656 49.1623C176.248 55.6209 189.576 66.5583 198.952 80.5913C208.329 94.6243 213.334 111.123 213.334 128C213.334 150.632 204.343 172.337 188.34 188.34C172.337 204.343 150.632 213.333 128 213.333V213.333Z" fill="black"/>
<path d="M213.333 128H234.667C234.667 113.992 231.908 100.122 226.547 87.1804C221.187 74.239 213.33 62.4802 203.425 52.5753C193.52 42.6703 181.761 34.8133 168.82 29.4528C155.878 24.0923 142.008 21.3333 128 21.3333V42.6666C150.632 42.6666 172.337 51.6571 188.34 67.6602C204.343 83.6633 213.333 105.368 213.333 128Z" fill="black"/>
</svg>
