<svg width="0" height="0">
    <symbol id="search" viewBox="0 0 24 24" fill="currentColor" xmlns="http://www.w3.org/2000/svg">
    <path d="M3.018 3.018A10.237 10.237 0 0 0 0 10.304c0 2.753 1.072 5.34 3.018 7.286a10.237 10.237 0 0 0 7.286 3.019c2.517 0 4.895-.897 6.772-2.538l5.722 5.723a.704.704 0 1 0 .996-.995l-5.723-5.723a10.228 10.228 0 0 0 2.538-6.772c0-2.752-1.072-5.34-3.019-7.286A10.237 10.237 0 0 0 10.304 0c-2.752 0-5.34 1.072-7.286 3.018Zm13.577.995c3.469 3.47 3.469 9.113 0 12.582-3.469 3.469-9.113 3.469-12.581 0a8.868 8.868 0 0 1-2.602-6.29 8.87 8.87 0 0 1 2.602-6.292c3.468-3.468 9.112-3.468 12.581 0Z" />
  </symbol>
  <symbol id="phone" viewBox="0 0 36 36" fill="currentColor" xmlns="http://www.w3.org/2000/svg">
    <path d="M9.93 16.185a22.723 22.723 0 0 0 9.885 9.885l3.3-3.3a1.491 1.491 0 0 1 1.53-.36 17.11 17.11 0 0 0 5.355.855c.825 0 1.5.675 1.5 1.5V30c0 .825-.675 1.5-1.5 1.5C15.915 31.5 4.5 20.085 4.5 6c0-.825.675-1.5 1.5-1.5h5.25c.825 0 1.5.675 1.5 1.5 0 1.875.3 3.675.855 5.355.165.525.045 1.11-.375 1.53l-3.3 3.3Z"></path>
  </symbol>
  <symbol id="cart" viewBox="0 0 36 36" fill="currentColor" xmlns="http://www.w3.org/2000/svg">
    <path d="m35.987 35.103-2.96-25.06c-.05-.404-.445-.718-.889-.718h-5.477V7.801C26.66 3.497 22.81 0 18.073 0S9.488 3.497 9.488 7.8v1.525H3.862c-.444 0-.839.314-.888.717L.013 35.103c-.05.224.05.449.197.628.148.18.395.269.642.269h34.296c.247 0 .494-.09.642-.269.148-.18.246-.404.197-.628Zm-10.215-21.25c.444 0 .79.314.79.717 0 .404-.346.718-.79.718-.444 0-.79-.314-.79-.718 0-.403.346-.717.79-.717ZM11.264 7.801c0-3.407 3.06-6.187 6.81-6.187 3.75 0 6.81 2.78 6.81 6.187v1.524h-13.62V7.801Zm-.888 6.052c.444 0 .79.314.79.717 0 .404-.346.718-.79.718-.444 0-.79-.314-.79-.718 0-.403.346-.717.79-.717ZM1.888 34.341l2.764-23.447h4.836v1.48c-.987.313-1.678 1.165-1.678 2.151 0 1.256 1.135 2.287 2.516 2.287 1.382 0 2.517-1.031 2.517-2.287 0-.986-.69-1.838-1.678-2.151v-1.48h13.62v1.48c-.987.313-1.677 1.165-1.677 2.151 0 1.256 1.134 2.287 2.516 2.287 1.382 0 2.517-1.031 2.517-2.287 0-.986-.691-1.838-1.678-2.151v-1.48h5.034l2.763 23.447H1.888Z"></path>
  </symbol>
  <symbol id="remove" viewBox="0 0 32 32" fill="currentColor" xmlns="http://www.w3.org/2000/svg">
    <path d="m25.334 9.047-1.88-1.88L16 14.62 8.547 7.167l-1.88 1.88L14.12 16.5l-7.453 7.453 1.88 1.88L16 18.38l7.454 7.453 1.88-1.88L17.88 16.5l7.454-7.453Z" />
  </symbol>
  <symbol id="whatsApp" viewBox="0 0 26 26" fill="currentColor" xmlns="http://www.w3.org/2000/svg">
    <path d="M18.117 15.232c-.277-.142-1.656-.818-1.912-.91-.257-.096-.445-.141-.63.143-.188.282-.721.909-.889 1.1-.162.187-.327.21-.604.07-1.645-.822-2.724-1.467-3.809-3.328-.286-.495.287-.46.823-1.529.091-.188.046-.348-.025-.49-.071-.142-.63-1.518-.864-2.08-.226-.545-.46-.469-.63-.48-.162-.01-.347-.01-.535-.01-.188 0-.49.072-.746.349-.257.281-.98.96-.98 2.335 0 1.377 1.002 2.71 1.14 2.898.142.188 1.972 3.01 4.783 4.227 1.777.767 2.473.833 3.362.7.54-.08 1.655-.675 1.886-1.332.231-.655.231-1.216.163-1.333-.069-.124-.257-.196-.533-.33Z" />
    <path d="M23.491 8.592a11.377 11.377 0 0 0-2.445-3.638 11.282 11.282 0 0 0-3.638-2.445A11.321 11.321 0 0 0 13 1.625h-.05A11.349 11.349 0 0 0 1.624 13.053a11.41 11.41 0 0 0 1.219 5.076v3.86c0 .644.523 1.167 1.168 1.167h3.862a11.41 11.41 0 0 0 5.075 1.219h.054c1.52 0 2.996-.294 4.385-.87a11.285 11.285 0 0 0 3.625-2.418 11.348 11.348 0 0 0 3.362-8.036 11.329 11.329 0 0 0-.884-4.459Zm-3.836 11.121A9.395 9.395 0 0 1 13 22.445h-.043a9.479 9.479 0 0 1-4.395-1.104l-.213-.114H4.774v-3.575l-.115-.214a9.48 9.48 0 0 1-1.104-4.395 9.387 9.387 0 0 1 2.732-6.698 9.374 9.374 0 0 1 6.673-2.79h.043a9.4 9.4 0 0 1 3.661.733 9.385 9.385 0 0 1 3.021 2.032 9.406 9.406 0 0 1 2.765 6.723 9.41 9.41 0 0 1-2.795 6.67Z" />
  </symbol>
  <symbol id="youTube" viewBox="0 0 26 26" fill="currentColor" xmlns="http://www.w3.org/2000/svg">
    <path d="M24.375 12.929c0-.056 0-.12-.003-.193-.002-.206-.007-.437-.012-.683a38.177 38.177 0 0 0-.112-2.08c-.076-.916-.188-1.68-.34-2.254a3.543 3.543 0 0 0-2.496-2.501c-.719-.193-2.125-.313-4.106-.386a119.37 119.37 0 0 0-2.958-.071c-.353-.005-.68-.008-.975-.01h-.746c-.295.002-.622.005-.975.01-1.008.012-2.016.035-2.958.07-1.98.077-3.39.196-4.106.387a3.538 3.538 0 0 0-2.496 2.5c-.155.575-.264 1.339-.34 2.255a38.24 38.24 0 0 0-.112 2.08c-.007.246-.01.477-.012.683 0 .074-.003.137-.003.193v.142c0 .056 0 .12.003.193.002.206.007.437.012.683.02.709.056 1.414.112 2.08.076.916.188 1.68.34 2.254a3.538 3.538 0 0 0 2.496 2.501c.716.193 2.125.313 4.106.386.942.036 1.95.059 2.958.071.353.005.68.008.975.01h.746c.295-.002.622-.005.975-.01 1.008-.012 2.016-.035 2.958-.07 1.98-.077 3.39-.196 4.106-.387a3.534 3.534 0 0 0 2.496-2.5c.155-.575.264-1.339.34-2.255a38.18 38.18 0 0 0 .112-2.08c.007-.246.01-.477.012-.683 0-.073.003-.137.003-.193v-.142Zm-1.828.132c0 .053 0 .112-.003.18-.002.198-.007.417-.012.653a34.28 34.28 0 0 1-.107 1.978c-.069.817-.165 1.488-.284 1.937a1.708 1.708 0 0 1-1.204 1.206c-.533.142-1.876.256-3.702.325a115.609 115.609 0 0 1-3.872.079h-.726l-.96-.008c-.993-.013-1.985-.035-2.912-.07-1.826-.072-3.171-.184-3.702-.326a1.713 1.713 0 0 1-1.204-1.206c-.119-.45-.215-1.12-.284-1.937a36.77 36.77 0 0 1-.107-1.978c-.007-.236-.01-.457-.012-.653 0-.068-.003-.13-.003-.18v-.122c0-.053 0-.112.003-.18.002-.198.007-.417.012-.653.018-.675.054-1.35.107-1.978.069-.817.165-1.488.284-1.937a1.708 1.708 0 0 1 1.204-1.206c.533-.142 1.876-.256 3.702-.325a115.409 115.409 0 0 1 3.872-.079h.726l.96.008c.993.013 1.985.035 2.912.071 1.826.071 3.171.183 3.702.325.584.157 1.046.62 1.204 1.206.119.45.215 1.12.284 1.937.053.627.086 1.303.107 1.978.007.236.01.457.012.653 0 .068.003.13.003.18v.122ZM10.74 16.402l5.89-3.427-5.89-3.377v6.804Z" />
  </symbol>
  <symbol id="telegram" viewBox="0 0 26 26" fill="currentColor" xmlns="http://www.w3.org/2000/svg">
    <path d="M21.182 3.247c-.261.019-.517.08-.758.181h-.004c-.231.092-1.332.555-3.006 1.257L11.416 7.21c-4.304 1.812-8.534 3.596-8.534 3.596l.05-.02s-.292.096-.596.305a1.65 1.65 0 0 0-.476.461c-.15.22-.27.555-.226.902.074.586.454.938.727 1.133.276.196.54.288.54.288h.006l3.967 1.337c.178.57 1.21 3.96 1.457 4.741.146.467.289.758.466.98.087.115.187.21.308.286a.91.91 0 0 0 .2.086l-.04-.01c.012.004.022.014.03.017.033.009.055.012.096.018.628.19 1.133-.2 1.133-.2l.028-.022 2.343-2.133 3.926 3.012.09.038c.817.36 1.646.16 2.084-.193.441-.355.613-.81.613-.81l.028-.073L22.67 5.408c.086-.383.108-.743.013-1.091a1.468 1.468 0 0 0-.634-.85 1.521 1.521 0 0 0-.867-.22ZM21.1 4.912c-.004.052.006.046-.017.144v.01l-3.005 15.38c-.013.022-.035.07-.095.118-.064.05-.114.082-.378-.023l-4.802-3.682-2.9 2.644.609-3.892L18.357 8.3c.324-.3.216-.364.216-.364.022-.369-.489-.108-.489-.108l-9.893 6.129-.003-.017-4.742-1.596v-.004l-.012-.002a.235.235 0 0 0 .025-.01l.026-.013.025-.009 8.537-3.596c2.155-.907 4.326-1.821 5.996-2.527 1.67-.7 2.904-1.215 2.974-1.243.066-.026.035-.026.082-.026Z" />
  </symbol>
  <symbol id="confirm" width="100" height="100" viewBox="0 0 100 100" fill="none" xmlns="http://www.w3.org/2000/svg">
    <circle cx="50" cy="50" r="50" fill="#04E277"/>
    <path d="M42.262 60.8333L31.4286 50L27.8175 53.6111L42.262 68.0556L73.2143 37.1032L69.6032 33.4921L42.262 60.8333Z" fill="white"/>
  </symbol>
  <symbol id="error" width="100" height="100" viewBox="0 0 100 100" fill="none" xmlns="http://www.w3.org/2000/svg">
    <path d="M50 0C22.386 0 0 22.386 0 50s22.386 50 50 50 50-22.386 50-50S77.614 0 50 0Zm0 13.672c20.064 0 36.328 16.264 36.328 36.328 0 20.064-16.264 36.328-36.328 36.328-20.064 0-36.328-16.264-36.328-36.328 0-20.064 16.264-36.328 36.328-36.328ZM23.456 40.179v19.642h53.088V40.178H23.456Z" fill="#EB5757"/>
  </symbol>
</svg>
